<?xml version="1.0" encoding="utf-8"?>
<!-- Generator: Adobe Illustrator 14.0.0, SVG Export Plug-In . SVG Version: 6.00 Build 43363)  -->
<!DOCTYPE svg PUBLIC "-//W3C//DTD SVG 1.1//EN" "http://www.w3.org/Graphics/SVG/1.1/DTD/svg11.dtd">
<svg version="1.1" id="Layer_1" xmlns="http://www.w3.org/2000/svg" xmlns:xlink="http://www.w3.org/1999/xlink" x="0px" y="0px"
	 width="841.89px" height="595.28px" viewBox="0 0 841.89 595.28" enable-background="new 0 0 841.89 595.28" xml:space="preserve">
<g id="SPLINE">
	<path fill="none" stroke="#000000" stroke-width="0.9921" stroke-linecap="round" stroke-linejoin="round" d="M351.748,408.099
		c-7.818,0-15.268,1.568-22.061,4.397l0,0c0.18-1.402,0.281-2.829,0.281-4.281l0,0c0-18.376-14.895-33.273-33.272-33.273l0,0
		c-10.684,0-20.184,5.041-26.271,12.865l0,0c-1.246-26.159-22.842-46.988-49.311-46.988l0,0c-27.268,0-49.373,22.107-49.373,49.376
		l0,0c0,3.323,0.332,6.569,0.958,9.707l0,0c-6.277-2.042-12.975-3.16-19.936-3.16l0,0c-35.568,0-64.398,28.833-64.398,64.4l0,0
		c0,35.566,28.831,64.4,64.398,64.4l0,0c11.884,0,23.008-3.232,32.563-8.845l0,0c6.006,5.925,14.253,9.583,23.357,9.583l0,0
		c9.644,0,18.325-4.106,24.402-10.661l0,0c8.656,7.48,19.925,12.016,32.261,12.016l0,0c18.304,0,34.272-9.972,42.798-24.771l0,0
		c10.531,12.285,26.153,20.08,43.604,20.08l0,0c31.716,0,57.423-25.708,57.423-57.424l0,0
		C409.171,433.808,383.464,408.099,351.748,408.099"/>
</g>
<g id="SPLINE_1_">
	<path fill="none" stroke="#000000" stroke-width="0.9921" stroke-linecap="round" stroke-linejoin="round" d="M770.928,408.875
		c0-27.862-21.893-50.612-49.415-51.99l0,0c1.505-5.129,2.324-10.549,2.324-16.166l0,0c0-31.714-25.708-57.425-57.423-57.425l0,0
		c-22.021,0-41.138,12.402-50.771,30.595l0,0c-4.927-16.662-20.335-28.823-38.594-28.823l0,0c-22.229,0-40.248,18.02-40.248,40.25
		l0,0c0,1.063,0.053,2.114,0.134,3.153l0,0c-8.071-5.479-17.809-8.68-28.301-8.68l0,0c-27.859,0-50.445,22.582-50.445,50.445l0,0
		c0,11.407,3.79,21.926,10.175,30.378l0,0c-20.247,12.212-33.791,34.414-33.791,59.783l0,0c0,38.527,31.237,69.767,69.768,69.767
		l0,0c26.229,0,49.068-14.483,60.981-35.884l0,0c15.299,23.627,41.87,39.275,72.114,39.275l0,0c42.96,0,78.55-31.551,84.869-72.748
		l0,0C749.453,459.039,770.928,436.472,770.928,408.875"/>
</g>
<g id="SPLINE_2_">
	<path fill="none" stroke="#000000" stroke-width="0.9921" stroke-linecap="round" stroke-linejoin="round" d="M708.719,256.643
		c20.452,0,37.03-13.981,37.03-34.432l0,0c0-20.452-16.578-37.031-37.03-37.031l0,0c-6.972,0-13.489,1.93-19.06,5.28l0,0
		c0.763-3.306,1.18-6.743,1.18-10.281l0,0c0-25.194-20.426-45.617-45.62-45.617l0,0c-9.782,0-18.838,3.088-26.268,8.333l0,0
		c4.122-7.784,6.466-16.654,6.466-26.077l0,0c0-30.824-24.988-55.813-55.813-55.813l0,0c-30.824,0-55.813,24.988-55.813,55.813l0,0
		c0,0.22,0.013,0.438,0.015,0.657l0,0c-0.445-0.016-0.896-0.033-1.347-0.033l0,0c-19.858,0-35.957,16.097-35.957,35.956l0,0
		c0,8.479,2.942,16.269,7.854,22.417l0,0c-2.797-0.598-5.695-0.918-8.669-0.918l0,0c-22.822,0-41.323,18.5-41.323,41.324l0,0
		c0,22.823,18.501,41.323,41.323,41.323l0,0L708.719,256.643"/>
</g>
<g id="SPLINE_3_">
	<path fill="none" stroke="#000000" stroke-width="0.9921" stroke-linecap="round" stroke-linejoin="round" d="M383.383,251.457
		c14.867,0,26.918-10.754,26.918-25.621l0,0c0-14.867-12.052-26.92-26.918-26.92l0,0c-0.909,0-1.806,0.048-2.691,0.138l0,0
		c0.184-1.916,0.285-3.854,0.285-5.816l0,0c0-33.154-26.876-60.032-60.032-60.032l0,0c-12.756,0-24.575,3.99-34.3,10.776l0,0
		c-10.8-31.584-40.715-54.302-75.958-54.302l0,0c-42.723,0-77.636,33.375-80.125,75.472l0,0c-4.672-1.662-9.699-2.576-14.942-2.576
		l0,0c-24.604,0-44.548,19.945-44.548,44.548l0,0c0,24.603,19.944,44.545,44.548,44.545l0,0L383.383,251.457"/>
</g>
</svg>
